<mxfile host="app.diagrams.net" agent="Mozilla/5.0 (Macintosh; Intel Mac OS X 10_15_7) AppleWebKit/537.36 (KHTML, like Gecko) Chrome/141.0.0.0 Safari/537.36" version="28.2.8">
  <diagram id="ClassDiagramIter2Full" name="Iteration 2 - Full Class Diagram">
    <mxGraphModel dx="5665" dy="2175" grid="1" gridSize="10" guides="1" tooltips="1" connect="1" arrows="1" fold="1" page="1" pageScale="1" pageWidth="2400" pageHeight="1400" math="0" shadow="0">
      <root>
        <mxCell id="0" />
        <mxCell id="1" parent="0" />
        <mxCell id="3" value="&amp;laquo;controller&amp;raquo;&lt;br/&gt;&lt;b&gt;SearchService&lt;/b&gt;&lt;hr/&gt;&lt;hr/&gt;+ List&amp;lt;Connection&amp;gt; search(criteria: SearchCriteria)&lt;br/&gt;+ List&amp;lt;Connection&amp;gt; sort(results: List&amp;lt;Connection&amp;gt;, key: SortKey)" style="shape=rect;whiteSpace=wrap;html=1;rounded=1;strokeWidth=2;" parent="1" vertex="1">
          <mxGeometry x="120" y="120" width="360" height="140" as="geometry" />
        </mxCell>
        <mxCell id="4" value="&amp;laquo;repository&amp;raquo;&lt;br/&gt;&lt;b&gt;RouteCatalogue&lt;/b&gt;&lt;hr/&gt;&lt;hr/&gt;+ List&amp;lt;Route&amp;gt; find(criteria: SearchCriteria)" style="shape=rect;whiteSpace=wrap;html=1;rounded=1;strokeWidth=2;" parent="1" vertex="1">
          <mxGeometry x="560" y="120" width="340" height="110" as="geometry" />
        </mxCell>
        <mxCell id="5" value="&lt;b&gt;Connection&lt;/b&gt;&lt;hr/&gt;- legs: List&amp;lt;Route&amp;gt;&lt;hr/&gt;+ Duration totalDuration()&lt;br/&gt;+ Money totalCost(classType: ClassType)" style="shape=rect;whiteSpace=wrap;html=1;rounded=1;strokeWidth=2;" parent="1" vertex="1">
          <mxGeometry x="250" y="620" width="360" height="140" as="geometry" />
        </mxCell>
        <mxCell id="6" value="&lt;b&gt;Route&lt;/b&gt;&lt;hr/&gt;- departureStation: Station&lt;br/&gt;- arrivalStation: Station&lt;br/&gt;- departureTime: LocalTime&lt;br/&gt;- arrivalTime: LocalTime&lt;br/&gt;- trainType: TrainType&lt;br/&gt;- priceFirst: Money&lt;br/&gt;- priceSecond: Money&lt;br/&gt;- dayPattern: DaySet&lt;hr/&gt;" style="shape=rect;whiteSpace=wrap;html=1;rounded=1;strokeWidth=2;" parent="1" vertex="1">
          <mxGeometry x="560" y="340" width="360" height="210" as="geometry" />
        </mxCell>
        <mxCell id="7" value="&lt;b&gt;Station&lt;/b&gt;&lt;hr/&gt;- name: String&lt;br/&gt;- city: String&lt;br/&gt;- country: String&lt;br/&gt;- code: String&lt;hr/&gt;" style="shape=rect;whiteSpace=wrap;html=1;rounded=1;strokeWidth=2;" parent="1" vertex="1">
          <mxGeometry x="980" y="360" width="260" height="140" as="geometry" />
        </mxCell>
        <mxCell id="8" value="&amp;laquo;enum&amp;raquo;&lt;br/&gt;&lt;b&gt;TrainType&lt;/b&gt;&lt;hr/&gt;&lt;hr/&gt;" style="shape=rect;whiteSpace=wrap;html=1;rounded=1;strokeWidth=2;dashed=1;" parent="1" vertex="1">
          <mxGeometry x="340" y="984.69" width="160" height="60" as="geometry" />
        </mxCell>
        <mxCell id="9" value="&amp;laquo;enum&amp;raquo;&lt;br/&gt;&lt;b&gt;ClassType&lt;/b&gt;&lt;hr/&gt;&lt;hr/&gt;" style="shape=rect;whiteSpace=wrap;html=1;rounded=1;strokeWidth=2;dashed=1;" parent="1" vertex="1">
          <mxGeometry y="660" width="160" height="60" as="geometry" />
        </mxCell>
        <mxCell id="10" value="&amp;laquo;value&amp;raquo;&lt;br/&gt;&lt;b&gt;Money&lt;/b&gt;&lt;hr/&gt;- amount: decimal&lt;br/&gt;- currency: String&lt;hr/&gt;" style="shape=rect;whiteSpace=wrap;html=1;rounded=1;strokeWidth=2;dashed=1;" parent="1" vertex="1">
          <mxGeometry x="630" y="984.69" width="220" height="80" as="geometry" />
        </mxCell>
        <mxCell id="11" value="&amp;laquo;value&amp;raquo;&lt;br/&gt;&lt;b&gt;DaySet&lt;/b&gt;&lt;hr/&gt;- mask: int&lt;hr/&gt;" style="shape=rect;whiteSpace=wrap;html=1;rounded=1;strokeWidth=2;dashed=1;" parent="1" vertex="1">
          <mxGeometry x="120" y="974.69" width="150" height="70" as="geometry" />
        </mxCell>
        <mxCell id="12" value="&amp;laquo;controller&amp;raquo;&lt;br/&gt;&lt;b&gt;BookingService&lt;/b&gt;&lt;hr/&gt;&lt;hr/&gt;+ Trip book(connectionId: ID, travellers: List&amp;lt;TravellerDTO&amp;gt;)" style="shape=rect;whiteSpace=wrap;html=1;rounded=1;strokeWidth=2;" parent="1" vertex="1">
          <mxGeometry x="1320" y="120" width="360" height="110" as="geometry" />
        </mxCell>
        <mxCell id="13" value="&amp;laquo;repository&amp;raquo;&lt;br/&gt;&lt;b&gt;TripRepository&lt;/b&gt;&lt;hr/&gt;&lt;hr/&gt;+ Trip save(trip: Trip)&lt;br/&gt;+ List&amp;lt;Trip&amp;gt; findByClient(lastName: String, id: String)" style="shape=rect;whiteSpace=wrap;html=1;rounded=1;strokeWidth=2;" parent="1" vertex="1">
          <mxGeometry x="1720" y="120" width="380" height="110" as="geometry" />
        </mxCell>
        <mxCell id="14" value="&lt;b&gt;Client&lt;/b&gt;&lt;hr/&gt;- id: String&lt;br/&gt;- firstName: String&lt;br/&gt;- lastName: String&lt;br/&gt;- age: int&lt;hr/&gt;" style="shape=rect;whiteSpace=wrap;html=1;rounded=1;strokeWidth=2;" parent="1" vertex="1">
          <mxGeometry x="1320" y="320" width="280" height="120" as="geometry" />
        </mxCell>
        <mxCell id="15" value="&lt;b&gt;Trip&lt;/b&gt;&lt;hr/&gt;- tripId: String&lt;br/&gt;- bookingDate: Date&lt;br/&gt;- /isCurrent: Boolean&lt;hr/&gt;" style="shape=rect;whiteSpace=wrap;html=1;rounded=1;strokeWidth=2;" parent="1" vertex="1">
          <mxGeometry x="1320" y="630" width="280" height="120" as="geometry" />
        </mxCell>
        <mxCell id="16" value="&lt;b&gt;Reservation&lt;/b&gt;&lt;hr/&gt;- travellerName: String&lt;br/&gt;- travellerId: String&lt;br/&gt;- classType: ClassType&lt;hr/&gt;" style="shape=rect;whiteSpace=wrap;html=1;rounded=1;strokeWidth=2;" parent="1" vertex="1">
          <mxGeometry x="1940" y="320" width="300" height="120" as="geometry" />
        </mxCell>
        <mxCell id="17" value="&lt;b&gt;Ticket&lt;/b&gt;&lt;hr/&gt;- ticketId: int&lt;br/&gt;- issuedAt: DateTime&lt;hr/&gt;" style="shape=rect;whiteSpace=wrap;html=1;rounded=1;strokeWidth=2;" parent="1" vertex="1">
          <mxGeometry x="1950" y="680" width="260" height="100" as="geometry" />
        </mxCell>
        <mxCell id="18" value="" style="endArrow=block;html=1;strokeWidth=1.3;" parent="1" source="3" target="4" edge="1">
          <mxGeometry relative="1" as="geometry" />
        </mxCell>
        <mxCell id="19" value="" style="endArrow=block;endFill=0;startArrow=diamond;startFill=0;html=1;strokeWidth=1.5;" parent="1" source="4" target="6" edge="1">
          <mxGeometry relative="1" as="geometry" />
        </mxCell>
        <mxCell id="20" value="1" style="text;html=1;strokeColor=none;fillColor=none;align=center;verticalAlign=middle;" parent="1" vertex="1">
          <mxGeometry x="710" y="250" width="40" height="20" as="geometry" />
        </mxCell>
        <mxCell id="21" value="1..*" style="text;html=1;strokeColor=none;fillColor=none;align=center;verticalAlign=middle;" parent="1" vertex="1">
          <mxGeometry x="710" y="300" width="40" height="20" as="geometry" />
        </mxCell>
        <mxCell id="22" value="" style="endArrow=block;endFill=0;startArrow=diamond;startFill=1;html=1;strokeWidth=1.5;" parent="1" source="5" target="6" edge="1">
          <mxGeometry relative="1" as="geometry" />
        </mxCell>
        <mxCell id="24" value="1..3" style="text;html=1;strokeColor=none;fillColor=none;align=center;verticalAlign=middle;" parent="1" vertex="1">
          <mxGeometry x="530" y="540" width="40" height="20" as="geometry" />
        </mxCell>
        <mxCell id="25" value="" style="endArrow=none;html=1;strokeWidth=1.3;" parent="1" source="6" target="7" edge="1">
          <mxGeometry relative="1" as="geometry" />
        </mxCell>
        <mxCell id="26" value="departure" style="text;html=1;strokeColor=none;fillColor=none;align=center;verticalAlign=middle;" parent="1" vertex="1">
          <mxGeometry x="800" y="360" width="80" height="20" as="geometry" />
        </mxCell>
        <mxCell id="27" value="" style="endArrow=none;html=1;strokeWidth=1.3;" parent="1" source="6" target="7" edge="1">
          <mxGeometry relative="1" as="geometry" />
        </mxCell>
        <mxCell id="28" value="arrival" style="text;html=1;strokeColor=none;fillColor=none;align=center;verticalAlign=middle;" parent="1" vertex="1">
          <mxGeometry x="800" y="390" width="80" height="20" as="geometry" />
        </mxCell>
        <mxCell id="29" value="1" style="text;html=1;strokeColor=none;fillColor=none;align=center;verticalAlign=middle;" parent="1" vertex="1">
          <mxGeometry x="920" y="360" width="40" height="20" as="geometry" />
        </mxCell>
        <mxCell id="30" value="1" style="text;html=1;strokeColor=none;fillColor=none;align=center;verticalAlign=middle;" parent="1" vertex="1">
          <mxGeometry x="960" y="360" width="40" height="20" as="geometry" />
        </mxCell>
        <mxCell id="31" value="" style="endArrow=none;dashed=1;html=1;strokeWidth=1.1;exitX=0.5;exitY=0;exitDx=0;exitDy=0;" parent="1" source="11" target="8" edge="1">
          <mxGeometry relative="1" as="geometry">
            <mxPoint x="470" y="970" as="sourcePoint" />
            <Array as="points">
              <mxPoint x="390" y="760" />
            </Array>
          </mxGeometry>
        </mxCell>
        <mxCell id="32" value="" style="endArrow=none;dashed=1;html=1;strokeWidth=1.1;" parent="1" source="5" target="9" edge="1">
          <mxGeometry relative="1" as="geometry" />
        </mxCell>
        <mxCell id="33" value="" style="endArrow=none;dashed=1;html=1;strokeWidth=1.1;" parent="1" source="6" target="10" edge="1">
          <mxGeometry relative="1" as="geometry" />
        </mxCell>
        <mxCell id="34" value="" style="endArrow=none;dashed=1;html=1;strokeWidth=1.1;" parent="1" source="5" edge="1">
          <mxGeometry relative="1" as="geometry">
            <mxPoint x="640" y="980" as="targetPoint" />
          </mxGeometry>
        </mxCell>
        <mxCell id="36" value="" style="endArrow=block;html=1;strokeWidth=1.3;" parent="1" source="12" target="13" edge="1">
          <mxGeometry relative="1" as="geometry" />
        </mxCell>
        <mxCell id="37" value="" style="endArrow=block;html=1;strokeWidth=1.3;" parent="1" source="12" target="4" edge="1">
          <mxGeometry relative="1" as="geometry" />
        </mxCell>
        <mxCell id="38" value="" style="endArrow=block;html=1;strokeWidth=1.3;" parent="1" source="14" target="15" edge="1">
          <mxGeometry relative="1" as="geometry" />
        </mxCell>
        <mxCell id="40" value="0..*" style="text;html=1;strokeColor=none;fillColor=none;align=center;verticalAlign=middle;" parent="1" vertex="1">
          <mxGeometry x="1560" y="590" width="50" height="20" as="geometry" />
        </mxCell>
        <mxCell id="41" value="" style="endArrow=block;endFill=0;startArrow=diamond;startFill=1;html=1;strokeWidth=1.5;" parent="1" source="15" target="16" edge="1">
          <mxGeometry relative="1" as="geometry" />
        </mxCell>
        <mxCell id="42" value="1..*" style="text;html=1;strokeColor=none;fillColor=none;align=center;verticalAlign=middle;" parent="1" vertex="1">
          <mxGeometry x="1880" y="360" width="50" height="20" as="geometry" />
        </mxCell>
        <mxCell id="43" value="" style="endArrow=block;html=1;strokeWidth=1.3;" parent="1" source="16" target="17" edge="1">
          <mxGeometry relative="1" as="geometry" />
        </mxCell>
        <mxCell id="44" value="1" style="text;html=1;strokeColor=none;fillColor=none;align=center;verticalAlign=middle;" parent="1" vertex="1">
          <mxGeometry x="2170" y="350" width="40" height="20" as="geometry" />
        </mxCell>
        <mxCell id="45" value="1" style="text;html=1;strokeColor=none;fillColor=none;align=center;verticalAlign=middle;" parent="1" vertex="1">
          <mxGeometry x="2370" y="350" width="40" height="20" as="geometry" />
        </mxCell>
        <mxCell id="46" value="" style="endArrow=block;html=1;strokeWidth=1.3;" parent="1" source="15" target="5" edge="1">
          <mxGeometry relative="1" as="geometry" />
        </mxCell>
      </root>
    </mxGraphModel>
  </diagram>
</mxfile>
